#define eva_splashscreen_width 128
#define eva_splashscreen_height 64
static unsigned char eva_splashscreen_bits[] = {
   0x00, 0x00, 0x00, 0x00, 0x00, 0x00, 0x00, 0x00, 0x00, 0x00, 0x00, 0x00,
   0x00, 0x00, 0x00, 0x00, 0x00, 0x00, 0x00, 0x00, 0x00, 0x00, 0x00, 0x00,
   0x00, 0x00, 0x00, 0x00, 0x00, 0x00, 0x00, 0x00, 0x00, 0x00, 0x00, 0x00,
   0x00, 0x00, 0x00, 0x00, 0x00, 0x00, 0x00, 0x00, 0x00, 0x00, 0x00, 0x00,
   0x00, 0x00, 0x00, 0x00, 0x00, 0x00, 0x00, 0x00, 0x00, 0x00, 0x00, 0x00,
   0x00, 0x00, 0x00, 0x00, 0x00, 0x00, 0x00, 0x00, 0x00, 0x00, 0x00, 0x00,
   0x00, 0x00, 0x00, 0x00, 0x00, 0x00, 0x00, 0x00, 0x00, 0x00, 0x00, 0x00,
   0x00, 0x18, 0x00, 0x00, 0x00, 0x00, 0x00, 0x00, 0x00, 0x00, 0x00, 0x00,
   0x00, 0x00, 0x00, 0x00, 0x00, 0x24, 0x00, 0x00, 0x00, 0x00, 0x00, 0x00,
   0x00, 0x00, 0x00, 0x00, 0x00, 0x00, 0x00, 0x00, 0x00, 0x42, 0x00, 0x00,
   0x00, 0x00, 0x00, 0x00, 0x00, 0x00, 0x00, 0x00, 0x00, 0x00, 0x00, 0x00,
   0x00, 0x41, 0x00, 0x00, 0x00, 0x00, 0x00, 0x00, 0x00, 0x00, 0x00, 0x00,
   0x00, 0x00, 0x00, 0x00, 0x00, 0x81, 0x00, 0x00, 0x00, 0x00, 0x00, 0x00,
   0x00, 0x00, 0x00, 0x00, 0x00, 0x00, 0x00, 0x00, 0x00, 0x81, 0x01, 0x00,
   0x00, 0x00, 0x00, 0x00, 0x00, 0x00, 0x00, 0x00, 0x00, 0x00, 0x00, 0x00,
   0x00, 0x41, 0x02, 0x00, 0x00, 0x00, 0x00, 0x00, 0x00, 0x00, 0x00, 0x00,
   0x00, 0x00, 0x00, 0x00, 0x00, 0x22, 0x04, 0x00, 0x00, 0x00, 0x00, 0x00,
   0x00, 0x00, 0x00, 0x00, 0x00, 0xfe, 0xff, 0xff, 0xff, 0x27, 0x1c, 0x00,
   0x00, 0x00, 0x00, 0x00, 0x00, 0x00, 0x00, 0x00, 0x00, 0xfe, 0xff, 0xff,
   0xff, 0x3f, 0x64, 0x00, 0x00, 0x00, 0x00, 0x00, 0x00, 0x00, 0x00, 0x00,
   0x00, 0xfe, 0xff, 0xff, 0xff, 0x3f, 0x82, 0x00, 0x00, 0x00, 0x00, 0x00,
   0x00, 0x00, 0x00, 0x00, 0x00, 0x0e, 0x00, 0x00, 0x00, 0x60, 0x01, 0x01,
   0x00, 0x00, 0x00, 0x00, 0x00, 0x00, 0x00, 0x00, 0x00, 0x0e, 0x00, 0x00,
   0x00, 0xe0, 0x01, 0xf9, 0xff, 0x9f, 0x1f, 0xf8, 0x01, 0x7e, 0x00, 0x00,
   0x00, 0x0e, 0x00, 0x00, 0x00, 0xe0, 0x01, 0xf9, 0xff, 0x9f, 0x1f, 0xf8,
   0x01, 0x7e, 0x00, 0x00, 0x00, 0x0e, 0xf0, 0x00, 0x1e, 0xe0, 0x83, 0x18,
   0x00, 0x98, 0x19, 0x98, 0x81, 0x81, 0x01, 0x00, 0x00, 0x0e, 0xf0, 0x00,
   0x1e, 0xe0, 0x44, 0x18, 0x00, 0x98, 0x19, 0x98, 0x81, 0x81, 0x01, 0x00,
   0x00, 0x0e, 0xf0, 0x00, 0x1e, 0xe0, 0x38, 0x98, 0xff, 0x9f, 0x19, 0x98,
   0x61, 0x7e, 0x06, 0x00, 0x00, 0x0e, 0xf0, 0x00, 0x1e, 0xe0, 0x00, 0x98,
   0xff, 0x9f, 0x19, 0x98, 0x61, 0x7e, 0x06, 0x00, 0x00, 0x0e, 0xf0, 0x00,
   0x1e, 0xe0, 0x00, 0x98, 0x01, 0x80, 0x19, 0x98, 0x99, 0x81, 0x19, 0x00,
   0x00, 0x0e, 0xf0, 0x00, 0x1e, 0xe0, 0x00, 0x98, 0x01, 0x80, 0x19, 0x98,
   0x99, 0x81, 0x19, 0x00, 0x00, 0x0e, 0xf0, 0x00, 0x1e, 0xe0, 0x00, 0x98,
   0x01, 0x80, 0x19, 0x98, 0x99, 0x81, 0x19, 0x00, 0x00, 0x0e, 0xf0, 0x00,
   0x1e, 0xe0, 0x00, 0x98, 0x01, 0x80, 0x19, 0x98, 0x99, 0x81, 0x19, 0x00,
   0x00, 0x0e, 0xf0, 0x00, 0x1e, 0xe0, 0x00, 0x98, 0x01, 0x80, 0x19, 0x98,
   0x99, 0x81, 0x19, 0x00, 0x00, 0x0e, 0xf0, 0x00, 0x1e, 0xe0, 0x00, 0x98,
   0x01, 0x80, 0x19, 0x98, 0x99, 0x81, 0x19, 0x00, 0x00, 0x0e, 0xf0, 0x00,
   0x1e, 0xe0, 0x00, 0x98, 0x7f, 0x80, 0x19, 0x98, 0x99, 0xff, 0x19, 0x00,
   0x00, 0x0e, 0xf0, 0x00, 0x1e, 0xe0, 0x00, 0x98, 0x7f, 0x80, 0x19, 0x98,
   0x99, 0xff, 0x19, 0x00, 0x00, 0x0e, 0xf0, 0x00, 0x1e, 0xe0, 0x00, 0x18,
   0x60, 0x80, 0x19, 0x98, 0x19, 0x00, 0x18, 0x00, 0x00, 0x0e, 0xf0, 0x00,
   0x1e, 0xe0, 0x00, 0x18, 0x60, 0x80, 0x19, 0x98, 0x19, 0x00, 0x18, 0x00,
   0x00, 0x0e, 0xf0, 0x00, 0x1e, 0xe0, 0x00, 0x98, 0x7f, 0x80, 0x79, 0x9e,
   0x99, 0xff, 0x19, 0x00, 0x00, 0x0e, 0x00, 0x00, 0x00, 0xe0, 0x00, 0x98,
   0x7f, 0x80, 0x79, 0x9e, 0x99, 0xff, 0x19, 0x00, 0x00, 0x0e, 0x00, 0x00,
   0x00, 0xe0, 0x00, 0x98, 0x01, 0x00, 0x66, 0x66, 0x98, 0x81, 0x19, 0x00,
   0x00, 0x0e, 0x00, 0x00, 0x00, 0xe0, 0x00, 0x98, 0x01, 0x00, 0x66, 0x66,
   0x98, 0x81, 0x19, 0x00, 0x00, 0x0e, 0x00, 0x00, 0x00, 0xe0, 0x00, 0x98,
   0x01, 0x00, 0xe6, 0x67, 0x98, 0x81, 0x19, 0x00, 0x00, 0x0e, 0x00, 0x00,
   0x00, 0xe0, 0x00, 0x98, 0x01, 0x00, 0xe6, 0x67, 0x98, 0x81, 0x19, 0x00,
   0x00, 0x0e, 0x00, 0x00, 0x00, 0xe0, 0x00, 0x98, 0x01, 0x00, 0x98, 0x19,
   0x98, 0x81, 0x19, 0x00, 0x00, 0x0e, 0x80, 0x83, 0x03, 0xe0, 0x00, 0x98,
   0x01, 0x00, 0x98, 0x19, 0x98, 0x81, 0x19, 0x00, 0x00, 0x0e, 0x80, 0x83,
   0x03, 0xe0, 0x00, 0x98, 0xff, 0x1f, 0x98, 0x19, 0x98, 0x81, 0x19, 0x00,
   0x00, 0x0e, 0x80, 0x83, 0x03, 0xe0, 0x00, 0x98, 0xff, 0x1f, 0x98, 0x19,
   0x98, 0x81, 0x19, 0x00, 0x00, 0x0e, 0x80, 0xff, 0x03, 0xe0, 0x00, 0x18,
   0x00, 0x18, 0x60, 0x06, 0x98, 0x81, 0x19, 0x00, 0x00, 0x0e, 0x80, 0xff,
   0x03, 0xe0, 0x00, 0x18, 0x00, 0x18, 0x60, 0x06, 0x98, 0x81, 0x19, 0x00,
   0x00, 0x0e, 0x80, 0xff, 0x03, 0xe0, 0x00, 0xf8, 0xff, 0x1f, 0xe0, 0x07,
   0xf8, 0x81, 0x1f, 0x00, 0x00, 0x0e, 0x00, 0x00, 0x00, 0xe0, 0x00, 0xf8,
   0xff, 0x1f, 0xe0, 0x07, 0xf8, 0x81, 0x1f, 0x00, 0x00, 0x0e, 0x00, 0x00,
   0x00, 0xe0, 0x00, 0x00, 0x00, 0x00, 0x00, 0x00, 0x00, 0x00, 0x00, 0x00,
   0x00, 0x0e, 0x00, 0x00, 0x00, 0xe0, 0x00, 0x00, 0x00, 0x00, 0x00, 0x00,
   0x00, 0x00, 0x00, 0x00, 0x00, 0xfe, 0xff, 0xff, 0xff, 0xff, 0x00, 0x00,
   0x00, 0x00, 0x00, 0x00, 0x00, 0x00, 0x00, 0x00, 0x00, 0xfe, 0xff, 0xff,
   0xff, 0xff, 0x00, 0x00, 0x00, 0x00, 0x00, 0x00, 0x00, 0x00, 0x00, 0x00,
   0x00, 0xfe, 0xff, 0xff, 0xff, 0xff, 0x00, 0x00, 0x00, 0x00, 0x00, 0x00,
   0x00, 0x00, 0x00, 0x00, 0x00, 0x00, 0x00, 0x00, 0x00, 0x00, 0x00, 0x00,
   0x00, 0x00, 0x00, 0x00, 0x00, 0x00, 0x00, 0x00, 0x00, 0x00, 0x00, 0x00,
   0x00, 0x00, 0x00, 0x00, 0x00, 0x00, 0x00, 0x00, 0x00, 0x00, 0x00, 0x00,
   0x00, 0x00, 0x00, 0x00, 0x00, 0x00, 0x00, 0x00, 0x00, 0x00, 0x00, 0x00,
   0x00, 0x00, 0x00, 0x00, 0x00, 0x00, 0x00, 0x00, 0x00, 0x00, 0x00, 0x00,
   0x00, 0x00, 0x00, 0x00, 0x00, 0x00, 0x00, 0x00, 0x00, 0x00, 0x00, 0x00,
   0x00, 0x00, 0x00, 0x00, 0x00, 0x00, 0x00, 0x00, 0x00, 0x00, 0x00, 0x00,
   0x00, 0x00, 0x00, 0x00, 0x00, 0x00, 0x00, 0x00, 0x00, 0x00, 0x00, 0x00,
   0x00, 0x00, 0x00, 0x00, 0x00, 0x00, 0x00, 0x00, 0x00, 0x00, 0x00, 0x00,
   0x00, 0x00, 0x00, 0x00, 0x00, 0x00, 0x00, 0x00, 0x00, 0x00, 0x00, 0x00,
   0x00, 0x00, 0x00, 0x00, 0x00, 0x00, 0x00, 0x00, 0x00, 0x00, 0x00, 0x00,
   0x00, 0x00, 0x00, 0x00, 0x00, 0x00, 0x00, 0x00, 0x00, 0x00, 0x00, 0x00,
   0x00, 0x00, 0x00, 0x00, 0x00, 0x00, 0x00, 0x00, 0x00, 0x00, 0x00, 0x00,
   0x00, 0x00, 0x00, 0x00, 0x00, 0x00, 0x00, 0x00, 0x00, 0x00, 0x00, 0x00,
   0x00, 0x00, 0x00, 0x00, 0x00, 0x00, 0x00, 0x00, 0x00, 0x00, 0x00, 0x00,
   0x00, 0x00, 0x00, 0x00, 0x00, 0x00, 0x00, 0x00, 0x00, 0x00, 0x00, 0x00,
   0x00, 0x00, 0x00, 0x00 };
